<svg xmlns="http://www.w3.org/2000/svg" viewBox="0 0 448 512" width="128" height="128" fill="none">
  <path fill="#25D366" d="M380.9 97.1C339-3.1 272.9-12.6 214 2.7 155.9 17.9 112.5 54.8 86 92.8 59.4 130.6 50 173 61.2 213.1L35 457.3l249.7-26.2c40.1 11.1 83.5-1.4 120.9-29.3 38.3-28.6 66.2-71.6 73.6-118.6 7.5-47.2-1.4-96.9-50.3-126.8z"/>
  <path fill="#fff" d="M335.7 176.3c-6.7-3.3-39.8-19.6-46-21.8-6.1-2.3-10.5-3.3-15.1 3.3-4.6 6.7-17.9 21.8-22 26.3-4.1 4.5-8.2 5-15 1.7-6.8-3.3-28.8-10.6-54.9-34-20.3-17.7-34-39.5-38-46.2-4-6.7-.4-10.3 2.9-13.6 2.9-2.9 6.7-7.6 10.1-11.4 3.4-3.8 4.6-6.7 6.8-11.1 2.2-4.6 1.1-8.4-.6-11.7-1.7-3.3-15.1-36.4-20.7-49.9-5.3-12.5-10.7-11.4-15.1-11.6-4.1-.2-8.9-.2-13.6-.2-4.6 0-11.9 1.7-18.2 8.4-6.1 6.7-23.4 22.9-23.4 56.1 0 33.3 23.9 65.6 27.2 70.2 3.3 4.6 46.9 71.5 113.6 96.4 66.8 24.9 66.8 16.6 78.8 15.6 12-.8 39-15.9 44.6-31.2 5.6-15.3 5.6-28.4 3.9-31.1-1.7-2.9-6.1-4.5-12.8-7.8z"/>
</svg>
